<svg width="110" height="166" viewBox="0 0 110 166" fill="none" xmlns="http://www.w3.org/2000/svg">
<mask id="mask0_1_9200" style="mask-type:luminance" maskUnits="userSpaceOnUse" x="0" y="0" width="110" height="166">
<path d="M0 0H109.333V165.333H0V0Z" fill="white"/>
</mask>
<g mask="url(#mask0_1_9200)">
<mask id="mask1_1_9200" style="mask-type:luminance" maskUnits="userSpaceOnUse" x="-29" y="-8" width="157" height="201">
<path d="M42.5417 192.016L-28.2969 29.8125L56.9271 -7.4115L127.766 154.797L42.5417 192.016Z" fill="white"/>
</mask>
<g mask="url(#mask1_1_9200)">
<mask id="mask2_1_9200" style="mask-type:luminance" maskUnits="userSpaceOnUse" x="-29" y="-8" width="157" height="201">
<path d="M42.5417 192.016L-28.2969 29.8125L56.9271 -7.4115L127.766 154.797L42.5417 192.016Z" fill="white"/>
</mask>
<g mask="url(#mask2_1_9200)">
<path d="M109.276 162.87C99.0989 165.078 88.8489 165.5 78.5208 164.141C70.8124 163.12 63.3593 161.141 56.1562 158.198C48.9583 155.26 42.2447 151.458 36.026 146.792C27.6926 140.542 20.6614 133.068 14.9322 124.365C9.20305 115.667 5.09367 106.26 2.6093 96.1458C0.75513 88.5938 -0.109453 80.9271 0.0259634 73.151C0.161381 65.375 1.28117 57.7396 3.39576 50.2552C6.21867 40.2344 10.6353 30.9688 16.651 22.4688C22.6718 13.9688 29.9478 6.73437 38.4843 0.765625C29.9583 6.73958 22.6874 13.9792 16.6822 22.4844C13.6926 26.7031 11.0885 31.1406 8.86971 35.8073C6.64576 40.4688 4.83326 45.2865 3.43742 50.2604C2.04159 55.2396 1.07805 60.2969 0.546797 65.4323C0.0155474 70.5729 -0.0677869 75.7188 0.281172 80.875C0.640546 86.026 1.43742 91.1146 2.67701 96.1302C5.1718 106.229 9.27596 115.63 14.9895 124.328C19.2655 130.818 24.2968 136.656 30.0885 141.844C35.8749 147.031 42.2291 151.391 49.151 154.932C56.0728 158.479 63.3228 161.089 70.9166 162.76C78.5103 164.438 86.1874 165.12 93.953 164.818C99.1197 164.609 104.229 163.958 109.276 162.87Z" fill="#ECE6D9"/>
</g>
</g>
</g>
<mask id="mask3_1_9200" style="mask-type:luminance" maskUnits="userSpaceOnUse" x="12" y="10" width="95" height="144">
<path d="M12 10.6666H106.667V153.333H12V10.6666Z" fill="white"/>
</mask>
<g mask="url(#mask3_1_9200)">
<mask id="mask4_1_9200" style="mask-type:luminance" maskUnits="userSpaceOnUse" x="-29" y="-8" width="157" height="201">
<path d="M42.5417 192.016L-28.2969 29.8125L56.9271 -7.4115L127.766 154.797L42.5417 192.016Z" fill="white"/>
</mask>
<g mask="url(#mask4_1_9200)">
<mask id="mask5_1_9200" style="mask-type:luminance" maskUnits="userSpaceOnUse" x="-29" y="-8" width="157" height="201">
<path d="M42.5417 192.016L-28.2969 29.8125L56.9271 -7.4115L127.766 154.797L42.5417 192.016Z" fill="white"/>
</mask>
<g mask="url(#mask5_1_9200)">
<path d="M106.615 150.474C97.8646 152.406 89.0521 152.792 80.1667 151.646C75.7552 151.068 71.4219 150.125 67.1719 148.807C62.9219 147.49 58.8177 145.823 54.8542 143.797C50.8906 141.776 47.125 139.432 43.5625 136.766C40.0052 134.099 36.6927 131.146 33.6406 127.911C30.5885 124.672 27.8333 121.193 25.3854 117.474C20.4531 109.979 16.9167 101.88 14.7708 93.1666C13.1719 86.6614 12.4323 80.0624 12.5521 73.3645C12.6719 66.6666 13.651 60.0937 15.4844 53.651C17.9271 45.026 21.7448 37.0624 26.9323 29.7499C32.1302 22.453 38.4062 16.2551 45.7656 11.1458C43.9583 12.4322 42.2031 13.7864 40.5104 15.2083C38.8125 16.6353 37.1823 18.1301 35.6146 19.6978C30.9062 24.427 26.8646 29.6718 23.5052 35.4374C20.1406 41.203 17.5625 47.2968 15.7656 53.7291C14.5729 57.9947 13.75 62.3333 13.2969 66.7447C12.3854 75.6301 12.9948 84.4062 15.1354 93.0728C17.276 101.74 20.7969 109.802 25.6979 117.266C30.6042 124.724 36.625 131.141 43.7604 136.505C49.0937 140.516 54.8437 143.786 61.0156 146.318C67.1875 148.849 73.5781 150.562 80.1875 151.453C84.5885 152.047 89.0052 152.266 93.4375 152.099C95.651 152.016 97.8594 151.838 100.057 151.562C102.26 151.286 104.443 150.927 106.615 150.474Z" fill="#ECE6D9"/>
</g>
</g>
</g>
<mask id="mask6_1_9200" style="mask-type:luminance" maskUnits="userSpaceOnUse" x="24" y="21" width="80" height="119">
<path d="M24 21.3333H104V140H24V21.3333Z" fill="white"/>
</mask>
<g mask="url(#mask6_1_9200)">
<mask id="mask7_1_9200" style="mask-type:luminance" maskUnits="userSpaceOnUse" x="-29" y="-8" width="157" height="201">
<path d="M42.5417 192.016L-28.2969 29.8125L56.9271 -7.4115L127.766 154.797L42.5417 192.016Z" fill="white"/>
</mask>
<g mask="url(#mask7_1_9200)">
<mask id="mask8_1_9200" style="mask-type:luminance" maskUnits="userSpaceOnUse" x="-29" y="-8" width="157" height="201">
<path d="M42.5417 192.016L-28.2969 29.8125L56.9271 -7.4115L127.766 154.797L42.5417 192.016Z" fill="white"/>
</mask>
<g mask="url(#mask8_1_9200)">
<path d="M103.948 138.078C102.141 138.49 100.318 138.823 98.4741 139.078C96.6303 139.338 94.7866 139.505 92.9428 139.588C89.2189 139.771 85.5157 139.625 81.8178 139.161C80.4324 138.99 79.0522 138.771 77.6824 138.505C76.3074 138.24 74.948 137.932 73.5939 137.583C72.2397 137.229 70.9011 136.833 69.573 136.396C68.2501 135.958 66.9376 135.474 65.6407 134.953C64.3491 134.432 63.0678 133.865 61.8126 133.26C60.5522 132.656 59.3126 132.01 58.0939 131.323C56.8803 130.635 55.6824 129.911 54.5157 129.151C53.3439 128.385 52.198 127.588 51.0782 126.75C49.9584 125.911 48.8699 125.042 47.8074 124.135C46.7449 123.224 45.7137 122.286 44.7137 121.312C43.7084 120.338 42.7397 119.333 41.8022 118.297C40.8647 117.26 39.9637 116.193 39.0991 115.099C38.2293 114 37.3959 112.88 36.6043 111.729C35.8074 110.583 35.047 109.411 34.3282 108.213C33.6095 107.016 32.9324 105.797 32.2918 104.552C31.6512 103.312 31.047 102.052 30.4897 100.771C29.9324 99.4895 29.4116 98.1926 28.9376 96.8801C28.4637 95.5624 28.0314 94.2343 27.6407 92.8958C27.2501 91.552 26.9064 90.1978 26.6043 88.8333C26.3022 87.4687 26.0418 86.0989 25.8282 84.7187C25.6147 83.3385 25.448 81.953 25.323 80.5572C25.198 79.1666 25.1199 77.7708 25.0887 76.3749C25.0522 74.9791 25.0626 73.5833 25.1199 72.1874C25.1772 70.7916 25.2814 69.3958 25.4272 68.0103C25.573 66.6197 25.7657 65.2343 26.0001 63.8593C26.2345 62.4791 26.5157 61.1145 26.8387 59.7551C27.1616 58.3958 27.5314 57.0468 27.9428 55.7135C28.3543 54.3749 28.8074 53.0572 29.3074 51.7499C29.8022 50.4426 30.3387 49.1562 30.922 47.8853C31.5001 46.6145 32.1199 45.3645 32.7814 44.1301C33.4428 42.901 34.1407 41.6926 34.8803 40.5051C35.6199 39.3228 36.3959 38.1614 37.2137 37.026C39.3803 33.9999 41.797 31.1822 44.4584 28.5728C45.7866 27.276 47.1668 26.0364 48.6043 24.8593C50.0366 23.677 51.5209 22.5624 53.0574 21.5208C50.0418 23.677 47.2345 26.0728 44.6251 28.7083C42.0157 31.3437 39.6512 34.1822 37.5262 37.2187C35.4064 40.2551 33.5522 43.453 31.9689 46.8072C30.3907 50.1614 29.1043 53.6197 28.1147 57.1926C27.6199 58.9739 27.2032 60.7655 26.8647 62.5833C26.5261 64.401 26.2605 66.2239 26.073 68.0572C25.3282 75.4635 25.8439 82.7812 27.6251 90.0103C29.4168 97.2343 32.3543 103.958 36.4376 110.182C40.5262 116.406 45.5418 121.76 51.4845 126.245C52.9532 127.359 54.4741 128.406 56.0366 129.385C57.6043 130.365 59.2032 131.281 60.8439 132.13C65.7918 134.693 70.9845 136.583 76.422 137.812C81.8543 139.042 87.3595 139.568 92.9272 139.385C94.7762 139.323 96.6199 139.182 98.4584 138.958C100.297 138.734 102.13 138.443 103.948 138.078Z" fill="#ECE6D9"/>
</g>
</g>
</g>
<mask id="mask9_1_9200" style="mask-type:luminance" maskUnits="userSpaceOnUse" x="37" y="30" width="65" height="98">
<path d="M37.3335 30.6666H101.333V128H37.3335V30.6666Z" fill="white"/>
</mask>
<g mask="url(#mask9_1_9200)">
<mask id="mask10_1_9200" style="mask-type:luminance" maskUnits="userSpaceOnUse" x="-29" y="-8" width="157" height="201">
<path d="M42.5417 192.016L-28.2969 29.8125L56.9271 -7.4115L127.766 154.797L42.5417 192.016Z" fill="white"/>
</mask>
<g mask="url(#mask10_1_9200)">
<mask id="mask11_1_9200" style="mask-type:luminance" maskUnits="userSpaceOnUse" x="-29" y="-8" width="157" height="201">
<path d="M42.5417 192.016L-28.2969 29.8125L56.9271 -7.4115L127.766 154.797L42.5417 192.016Z" fill="white"/>
</mask>
<g mask="url(#mask11_1_9200)">
<path d="M101.281 125.688C95.396 127.078 89.4533 127.417 83.4533 126.693C80.4637 126.328 77.5314 125.714 74.6512 124.844C73.2085 124.411 71.7918 123.911 70.396 123.359C69.0053 122.802 67.6303 122.182 66.2814 121.505C62.2189 119.469 58.4897 116.943 55.0887 113.927C51.6928 110.911 48.7397 107.505 46.2345 103.714C42.8803 98.6354 40.4793 93.1354 39.0314 87.2188C38.1355 83.5521 37.646 79.8281 37.5626 76.0521C37.4793 72.2813 37.8022 68.5365 38.5314 64.8333C39.2553 61.1302 40.3751 57.5469 41.8803 54.0833C43.3908 50.6198 45.2501 47.3594 47.4689 44.3021C51.0158 39.4063 55.3022 35.276 60.3283 31.9062C55.4741 35.4427 51.3387 39.6823 47.9272 44.625C46.2397 47.0677 44.7658 49.6354 43.5158 52.3333C42.2658 55.0208 41.2449 57.7969 40.4585 60.6563C40.073 62.0833 39.7449 63.526 39.4793 64.9792C39.2137 66.4323 39.0053 67.8958 38.8595 69.3646C38.6408 71.5729 38.5626 73.7865 38.6303 76C38.6928 78.2135 38.9012 80.4167 39.2449 82.6094C39.5939 84.7969 40.0783 86.9583 40.698 89.0833C41.3178 91.2135 42.073 93.2917 42.9637 95.3229C43.8491 97.3542 44.8595 99.3229 46.0001 101.224C47.1355 103.125 48.3907 104.948 49.7657 106.693C51.1355 108.432 52.6095 110.083 54.1928 111.635C55.771 113.188 57.448 114.635 59.2137 115.974C60.3855 116.87 61.6043 117.703 62.8543 118.5C64.1043 119.302 65.3699 120.036 66.6876 120.719C68.0053 121.401 69.3387 122.031 70.7085 122.599C72.073 123.167 73.4637 123.677 74.8699 124.13C77.698 125.047 80.5835 125.714 83.5262 126.135C89.4689 126.99 95.3908 126.844 101.281 125.688Z" fill="#ECE6D9"/>
</g>
</g>
</g>
<mask id="mask12_1_9200" style="mask-type:luminance" maskUnits="userSpaceOnUse" x="49" y="41" width="50" height="74">
<path d="M49.3335 41.3333H98.6668V114.667H49.3335V41.3333Z" fill="white"/>
</mask>
<g mask="url(#mask12_1_9200)">
<mask id="mask13_1_9200" style="mask-type:luminance" maskUnits="userSpaceOnUse" x="-29" y="-8" width="157" height="201">
<path d="M42.5417 192.016L-28.2969 29.8125L56.9271 -7.4115L127.766 154.797L42.5417 192.016Z" fill="white"/>
</mask>
<g mask="url(#mask13_1_9200)">
<mask id="mask14_1_9200" style="mask-type:luminance" maskUnits="userSpaceOnUse" x="-29" y="-8" width="157" height="201">
<path d="M42.5417 192.016L-28.2969 29.8125L56.9271 -7.4115L127.766 154.797L42.5417 192.016Z" fill="white"/>
</mask>
<g mask="url(#mask14_1_9200)">
<path d="M98.6199 113.292C94.1667 114.411 89.6563 114.719 85.0938 114.208C82.2344 113.885 79.4428 113.26 76.7188 112.328C74.0001 111.391 71.4115 110.177 68.9532 108.677C66.5001 107.172 64.2344 105.427 62.1615 103.427C60.0886 101.432 58.2605 99.2344 56.6667 96.8333C54.099 92.9583 52.2657 88.7604 51.1719 84.2396C50.349 80.875 49.9844 77.4531 50.0678 73.9896C50.1511 70.5208 50.6824 67.1302 51.6667 63.8021C52.9688 59.3698 54.9949 55.2917 57.7396 51.5781C60.4688 47.8802 63.7553 44.7813 67.6094 42.2812C63.9792 45.0052 60.8959 48.2448 58.349 52C55.823 55.7292 53.9792 59.7708 52.8126 64.1198L52.6094 64.9271L52.5105 65.3438C52.4949 65.4063 52.474 65.474 52.4636 65.5469L52.4219 65.75L52.2501 66.5625C52.1928 66.8385 52.1303 67.1042 52.0886 67.375L51.9532 68.1979C51.9063 68.4687 51.8542 68.7448 51.8282 69.0208L51.724 69.849C51.6876 70.1198 51.6511 70.3958 51.6355 70.6719C51.4271 72.8906 51.4063 75.1042 51.5678 77.3229C51.9063 81.7813 52.974 86.0625 54.7605 90.1667C56.5521 94.2656 58.9688 97.9531 62.0105 101.234C63.5261 102.865 65.1667 104.354 66.9324 105.703C67.1459 105.88 67.3751 106.042 67.599 106.203L68.2761 106.688C68.5001 106.854 68.7344 107.005 68.9636 107.156L69.6615 107.615C69.8907 107.771 70.1303 107.911 70.3699 108.052L71.0834 108.479L71.2605 108.589C71.3178 108.625 71.3803 108.656 71.4428 108.693L71.8126 108.896L72.5417 109.297C76.5261 111.396 80.7396 112.786 85.1928 113.474C89.6771 114.156 94.1511 114.099 98.6199 113.292Z" fill="#ECE6D9"/>
</g>
</g>
</g>
<mask id="mask15_1_9200" style="mask-type:luminance" maskUnits="userSpaceOnUse" x="61" y="52" width="36" height="51">
<path d="M61.3335 52H96.0002V102.667H61.3335V52Z" fill="white"/>
</mask>
<g mask="url(#mask15_1_9200)">
<mask id="mask16_1_9200" style="mask-type:luminance" maskUnits="userSpaceOnUse" x="-29" y="-8" width="157" height="201">
<path d="M42.5417 192.016L-28.2969 29.8125L56.9271 -7.4115L127.766 154.797L42.5417 192.016Z" fill="white"/>
</mask>
<g mask="url(#mask16_1_9200)">
<mask id="mask17_1_9200" style="mask-type:luminance" maskUnits="userSpaceOnUse" x="-29" y="-8" width="157" height="201">
<path d="M42.5417 192.016L-28.2969 29.8125L56.9271 -7.4115L127.766 154.797L42.5417 192.016Z" fill="white"/>
</mask>
<g mask="url(#mask17_1_9200)">
<path d="M95.9531 100.896C92.9374 101.755 89.8645 102.031 86.7395 101.734C83.5781 101.432 80.5677 100.594 77.7135 99.2083L77.1822 98.9426C77.0104 98.8541 76.8281 98.7708 76.6562 98.6718L76.1406 98.3801C75.9687 98.2864 75.7968 98.1926 75.6302 98.0885L75.1249 97.776C74.9531 97.6666 74.7864 97.5676 74.6249 97.453L74.1302 97.1145C73.9687 97.0051 73.802 96.8905 73.6458 96.776C72.3645 95.8437 71.1666 94.802 70.0677 93.6562C68.9687 92.5051 67.9739 91.2708 67.0937 89.9478C65.3124 87.276 64.0468 84.3801 63.2968 81.2603C62.927 79.7083 62.6927 78.1405 62.5989 76.552C62.5104 74.9687 62.5572 73.3853 62.7447 71.8072C62.7656 71.6145 62.7968 71.4166 62.8229 71.2187L62.9114 70.6301C62.9374 70.4322 62.9739 70.2291 63.0156 70.0468L63.1302 69.4635C63.1614 69.2655 63.2187 69.078 63.2604 68.8853L63.401 68.3072C63.4479 68.1145 63.5052 67.927 63.5572 67.7395L63.7239 67.1666C64.651 64.1301 66.0781 61.3541 68.0052 58.8333C69.9114 56.3385 72.2031 54.276 74.8906 52.6458C73.6927 53.6041 72.5781 54.6458 71.5416 55.7812C70.5208 56.901 69.5937 58.0989 68.7656 59.3697C67.1145 61.9114 65.9114 64.6458 65.1562 67.5833L65.026 68.1301C64.9843 68.3124 64.9322 68.4895 64.8958 68.677L64.7968 69.2187C64.7604 69.4062 64.7187 69.5833 64.6927 69.7708L64.6093 70.3228C64.5781 70.5051 64.5468 70.6874 64.5312 70.8749L64.4687 71.4322C64.4479 71.6197 64.427 71.802 64.4166 71.9895C64.2864 73.4687 64.2812 74.953 64.3958 76.4322C64.6354 79.4114 65.3541 82.2708 66.552 85.0103C67.7447 87.7551 69.3541 90.2239 71.3802 92.427C72.3906 93.5208 73.4791 94.526 74.651 95.4426C74.7968 95.5624 74.9479 95.6666 75.0989 95.776L75.5468 96.1197C75.6979 96.2395 75.8541 96.3333 76.0104 96.4374L76.4687 96.7499C76.6249 96.8541 76.7864 96.9478 76.9427 97.0468L77.4166 97.3385C77.5729 97.4374 77.7395 97.5208 77.9062 97.6093L78.3958 97.8853C81.0572 99.328 83.8802 100.302 86.8645 100.812C88.3593 101.068 89.8645 101.203 91.3802 101.213C92.9166 101.224 94.4374 101.12 95.9531 100.896Z" fill="#ECE6D9"/>
</g>
</g>
</g>
<mask id="mask18_1_9200" style="mask-type:luminance" maskUnits="userSpaceOnUse" x="74" y="62" width="20" height="28">
<path d="M74.6665 62.6666H93.3332V89.3333H74.6665V62.6666Z" fill="white"/>
</mask>
<g mask="url(#mask18_1_9200)">
<mask id="mask19_1_9200" style="mask-type:luminance" maskUnits="userSpaceOnUse" x="-29" y="-8" width="157" height="201">
<path d="M42.5417 192.016L-28.2969 29.8125L56.9271 -7.4115L127.766 154.797L42.5417 192.016Z" fill="white"/>
</mask>
<g mask="url(#mask19_1_9200)">
<mask id="mask20_1_9200" style="mask-type:luminance" maskUnits="userSpaceOnUse" x="-29" y="-8" width="157" height="201">
<path d="M42.5417 192.016L-28.2969 29.8125L56.9271 -7.4115L127.766 154.797L42.5417 192.016Z" fill="white"/>
</mask>
<g mask="url(#mask20_1_9200)">
<path d="M93.2915 88.5C92.5155 88.7968 91.7134 89.0052 90.8957 89.125C90.0623 89.25 89.2238 89.2968 88.38 89.2552C86.6561 89.1718 85.005 88.776 83.4269 88.0677C83.229 87.9687 83.0363 87.8854 82.8436 87.7864C82.6509 87.6875 82.4582 87.5833 82.2707 87.4791L81.9894 87.3177C81.8957 87.2604 81.8071 87.2135 81.7134 87.1458L81.4425 86.9687C81.3488 86.9062 81.2603 86.8489 81.1769 86.7812C80.4582 86.2864 79.7915 85.7291 79.1821 85.1041C77.9373 83.8437 76.9634 82.401 76.2603 80.7812C75.5519 79.1614 75.1561 77.4635 75.0728 75.6979C75.0311 74.8281 75.0728 73.9583 75.1978 73.0937C75.2082 72.9843 75.229 72.8802 75.2394 72.776L75.2967 72.4531C75.3123 72.3437 75.3384 72.25 75.3592 72.1354L75.4321 71.8177C75.479 71.6093 75.5415 71.401 75.5936 71.1927C75.6509 70.9843 75.7238 70.7812 75.7863 70.5729C76.3332 68.9323 77.1665 67.4531 78.2811 66.1302C78.8228 65.4843 79.4217 64.901 80.0832 64.375C80.729 63.8541 81.4269 63.4114 82.1717 63.0416C81.5884 63.6041 81.0363 64.1979 80.5311 64.8229C80.0363 65.4427 79.5884 66.0937 79.1925 66.776C78.4113 68.1145 77.8488 69.5468 77.5103 71.0573C77.4686 71.2448 77.4269 71.4323 77.3957 71.6198C77.3644 71.8073 77.328 71.9895 77.3071 72.177C77.2811 72.3645 77.2498 72.552 77.2342 72.7448L77.2082 73.0208C77.1978 73.1198 77.1925 73.2135 77.1873 73.3073C77.1405 74.0573 77.1509 74.8073 77.2238 75.5573C77.5155 78.6302 78.6925 81.3177 80.7446 83.625C81.2498 84.1875 81.7915 84.7031 82.3748 85.1823C82.4425 85.2448 82.5207 85.302 82.5936 85.3593L82.8175 85.526C82.9686 85.6458 83.1248 85.7448 83.2759 85.8593C83.4321 85.9739 83.5936 86.0677 83.7498 86.177C83.9061 86.2812 84.0728 86.375 84.2394 86.4687C85.5832 87.2552 87.0103 87.8125 88.5259 88.151C89.2967 88.3229 90.078 88.4375 90.8696 88.4948C91.6769 88.5468 92.4842 88.552 93.2915 88.5Z" fill="#ECE6D9"/>
</g>
</g>
</g>
<mask id="mask21_1_9200" style="mask-type:luminance" maskUnits="userSpaceOnUse" x="85" y="72" width="9" height="8">
<path d="M85.3335 72H93.3335V80H85.3335V72Z" fill="white"/>
</mask>
<g mask="url(#mask21_1_9200)">
<mask id="mask22_1_9200" style="mask-type:luminance" maskUnits="userSpaceOnUse" x="-29" y="-8" width="157" height="201">
<path d="M42.5417 192.016L-28.2969 29.8125L56.9271 -7.4115L127.766 154.797L42.5417 192.016Z" fill="white"/>
</mask>
<g mask="url(#mask22_1_9200)">
<mask id="mask23_1_9200" style="mask-type:luminance" maskUnits="userSpaceOnUse" x="-29" y="-8" width="157" height="201">
<path d="M42.5417 192.016L-28.2969 29.8125L56.9271 -7.4115L127.766 154.797L42.5417 192.016Z" fill="white"/>
</mask>
<g mask="url(#mask23_1_9200)">
<path d="M88.0208 72.4167C88.4218 72.2448 88.8385 72.151 89.276 72.1458C89.7135 72.1354 90.1354 72.2135 90.5416 72.3698C90.9479 72.5312 91.3072 72.7604 91.6197 73.0625C91.9374 73.3646 92.1822 73.7187 92.3541 74.1198C92.5312 74.5208 92.6197 74.9375 92.6302 75.375C92.6406 75.8125 92.5624 76.2344 92.4062 76.6406C92.2447 77.0469 92.0156 77.4062 91.7083 77.7187C91.4062 78.0364 91.0572 78.2812 90.6562 78.4531C90.2552 78.6302 89.8385 78.7187 89.401 78.7292C88.9635 78.7396 88.5416 78.6614 88.1354 78.5052C87.7291 78.3437 87.3697 78.1146 87.052 77.8073C86.7395 77.5052 86.4947 77.1562 86.3177 76.7552C86.1458 76.3542 86.052 75.9375 86.0468 75.5C86.0364 75.0625 86.1145 74.6406 86.2708 74.2344C86.4322 73.8281 86.6614 73.4687 86.9635 73.151C87.2656 72.8385 87.6197 72.5937 88.0208 72.4167Z" fill="#ECE6D9"/>
</g>
</g>
</g>
</svg>
