<svg width="56" height="53" viewBox="0 0 56 53" fill="none" xmlns="http://www.w3.org/2000/svg">
<mask id="mask0_10_2997" style="mask-type:luminance" maskUnits="userSpaceOnUse" x="0" y="0" width="33" height="53">
<path d="M0 0H32.4375V53H0V0Z" fill="white"/>
</mask>
<g mask="url(#mask0_10_2997)">
<path d="M3.19808 13.9531C3.19808 13.9531 0.0991211 13.9531 0.0991211 17.0521V35.6615C0.0991211 38.7604 3.19808 38.7604 3.19808 38.7604H12.5002L24.9064 51.1667C24.9064 51.1667 26.4585 52.7188 28.0106 52.7188H29.5575C29.5575 52.7188 31.1095 52.7188 31.1095 51.1667V1.54688C31.1095 1.54688 31.1095 0 29.5575 0H28.0106C26.4585 0 24.9064 1.54688 24.9064 1.54688L12.5002 13.9531H3.19808Z" fill="black"/>
</g>
<mask id="mask1_10_2997" style="mask-type:luminance" maskUnits="userSpaceOnUse" x="12" y="0" width="21" height="53">
<path d="M12.4375 0H32.4375V53H12.4375V0Z" fill="white"/>
</mask>
<g mask="url(#mask1_10_2997)">
<path d="M12.5 38.7604L24.9063 51.1667C24.9063 51.1667 26.4583 52.7188 28.0104 52.7188H29.5573C29.5573 52.7188 31.1094 52.7188 31.1094 51.1667V1.54688C31.1094 1.54688 31.1094 0 29.5573 0H28.0104C26.4583 0 24.9063 1.54688 24.9063 1.54688L12.5 13.9531V38.7604Z" fill="#ECE6D9"/>
</g>
<mask id="mask2_10_2997" style="mask-type:luminance" maskUnits="userSpaceOnUse" x="43" y="3" width="14" height="47">
<path d="M43.1045 3.698H56.0003V49.0313H43.1045V3.698Z" fill="white"/>
</mask>
<g mask="url(#mask2_10_2997)">
<path d="M45.0628 48.0938C44.6513 48.0938 44.2399 47.9219 43.9482 47.5782C43.4222 46.9636 43.4951 46.0365 44.1097 45.5104C49.6982 40.75 52.9013 33.8021 52.9013 26.4532C52.9013 19.1094 49.6982 12.1615 44.1097 7.40107C43.4951 6.87503 43.4222 5.94795 43.9482 5.32816C44.4742 4.71357 45.3961 4.64066 46.0159 5.1667C52.2555 10.4844 55.8336 18.2448 55.8336 26.4532C55.8336 34.6615 52.2555 42.4219 46.0159 47.7448C45.7399 47.9792 45.4013 48.0938 45.0628 48.0938Z" fill="black"/>
</g>
<path d="M40.8337 43.349C40.4118 43.349 40.0056 43.172 39.7191 42.8282C39.2139 42.2136 39.2972 41.3074 39.9118 40.7969C44.2451 37.2292 46.7243 31.9636 46.7243 26.3542C46.7243 20.8178 44.292 15.5886 40.042 12.0209C39.4326 11.5105 39.3545 10.599 39.8649 9.99487C40.3806 9.38028 41.2868 9.30737 41.8962 9.81778C46.7972 13.9324 49.6097 19.9636 49.6097 26.3542C49.6097 32.823 46.7399 38.8959 41.7451 43.0157C41.4795 43.2449 41.1514 43.349 40.8337 43.349Z" fill="black"/>
<path d="M36.8594 38.6979C36.4115 38.6979 35.9688 38.5051 35.6615 38.1301C35.1146 37.4687 35.2136 36.4947 35.875 35.9531C38.7604 33.5781 40.4115 30.0833 40.4115 26.3593C40.4115 22.5833 38.724 19.0572 35.7813 16.6874C35.1094 16.151 35.0052 15.177 35.5417 14.5104C36.0834 13.8437 37.0573 13.7343 37.724 14.2708C41.4011 17.2343 43.5157 21.6406 43.5157 26.3593C43.5157 31.0156 41.4479 35.3854 37.8438 38.3437C37.5521 38.5833 37.2084 38.6979 36.8594 38.6979Z" fill="black"/>
</svg>
