<svg width="95" height="96" viewBox="0 0 95 96" fill="none" xmlns="http://www.w3.org/2000/svg">
<mask id="mask0_10_2964" style="mask-type:luminance" maskUnits="userSpaceOnUse" x="0" y="0" width="95" height="96">
<path d="M0 0H94.6667V95.5781H0V0Z" fill="white"/>
</mask>
<g mask="url(#mask0_10_2964)">
<path d="M47.651 94.2657C21.7865 94.2657 0.640625 73.2709 0.640625 47.2553C0.640625 21.2397 21.7865 0.401123 47.651 0.401123C73.5156 0.401123 94.6615 21.3959 94.6615 47.4115C94.6615 73.422 73.5156 94.2657 47.651 94.2657ZM47.651 4.35425C23.9167 4.35425 4.75 23.6772 4.75 47.2553C4.75 70.9897 24.0677 90.1563 47.651 90.1563C71.3854 90.1563 90.5521 70.8386 90.5521 47.2553C90.5521 23.6772 71.3854 4.35425 47.651 4.35425Z" fill="#141223"/>
</g>
<path d="M92.5313 47.4115C92.5313 22.6094 72.4479 2.375 47.5 2.375C22.5469 2.375 2.46875 22.4583 2.46875 47.4115C2.46875 72.2083 22.5469 92.4427 47.5 92.4427C72.4479 92.4427 92.5313 72.2083 92.5313 47.4115Z" fill="#ECE6D9"/>
<path d="M72.4481 45.7345L38.6772 23.9792C38.0679 23.5261 37.3075 23.5261 36.6981 23.9792C36.0887 24.2865 35.6304 25.047 35.6304 25.8074V69.1667C35.6304 69.9272 36.0887 70.5313 36.6981 70.9897C37.0002 71.1407 37.3075 71.2917 37.6095 71.2917C37.9168 71.2917 38.37 71.1407 38.6772 70.9897L72.4481 49.0834C73.0575 48.7761 73.3595 48.0157 73.3595 47.4115C73.3595 46.6459 73.0575 46.0417 72.4481 45.7345Z" fill="#171616"/>
</svg>
