<svg width="44" height="32" viewBox="0 0 44 32" fill="none" xmlns="http://www.w3.org/2000/svg">
<path d="M24.0365 27.461L5.63021 15.5964L24.0365 3.7266C24.9479 3.11723 25.2552 1.90369 24.6458 0.992227C24.0365 0.0755605 22.8177 -0.226523 21.9063 0.382852L0.911458 13.9193C0.302082 14.2266 0 14.987 0 15.5964C0 16.2006 0.302082 16.9662 0.911458 17.2683L21.9063 30.8099C22.2083 30.961 22.6667 31.112 22.974 31.112C23.5781 31.112 24.3385 30.8099 24.6458 30.2006C25.2552 29.2891 25.099 28.0704 24.0365 27.461Z" fill="#171616"/>
<path d="M42.7502 0.226562C42.1408 -0.0755207 41.3804 -0.0755207 40.771 0.226562L19.7762 13.7682C19.1668 14.0755 18.8647 14.8359 18.8647 15.4401C18.8647 16.0495 19.1668 16.8099 19.7762 17.1172L40.771 30.6536C41.0731 30.8099 41.5314 30.9609 41.8387 30.9609C42.1408 30.9609 42.4429 30.8099 42.7502 30.6536C43.3595 30.3516 43.8127 29.5911 43.8127 28.8307V2.05469C43.8127 1.29427 43.5106 0.533854 42.7502 0.226562Z" fill="#171616"/>
</svg>
